<svg width="219" height="51" viewBox="0 0 219 51" fill="none" xmlns="http://www.w3.org/2000/svg">
<path d="M51.3896 21.5505L51.4192 21.5426C51.5963 21.4953 51.7826 21.4939 51.9605 21.5384C52.6681 21.7153 53.4424 21.1117 53.1153 20.4597C52.94 20.1103 52.6579 19.9036 52.1954 19.7269C51.8741 19.6041 51.5141 19.6306 51.2028 19.777C50.7569 19.9867 50.4061 20.2093 50.2143 20.5849C49.8897 21.2207 50.6999 21.7344 51.3896 21.5505Z" fill="#0E111F"/>
<path d="M25.1559 20.245C24.7324 20.4658 24.3508 20.7465 24.1033 21.1321C23.6945 21.769 24.5283 22.2704 25.2162 21.9547C25.4168 21.8626 25.6476 21.8623 25.8485 21.9538L25.9003 21.9773C26.5061 22.2532 27.2211 21.7617 26.942 21.1575C26.7388 20.7175 26.4167 20.4148 25.9249 20.2051C25.6774 20.0996 25.3945 20.1206 25.1559 20.245Z" fill="#0E111F"/>
<path d="M15.099 24.9974H13.3893C13.4227 25.5593 13.481 26.0742 13.5624 26.5464L15.099 24.9974Z" fill="#0E111F"/>
<path d="M13.5906 23.735L13.1889 22.8017L13.1889 22.8017L13.5906 23.735ZM20.659 20.6929L20.2574 19.7596L20.2574 19.7596L20.659 20.6929ZM21.1012 20.181L20.1194 19.9192L20.1194 19.9192L21.1012 20.181ZM22.0735 16.535L23.0552 16.7968L23.0552 16.7968L22.0735 16.535ZM22.5032 16.0314L22.082 15.1067L22.082 15.1067L22.5032 16.0314ZM36.7841 34.4847L36.882 35.4961L36.882 35.4961L36.7841 34.4847ZM35.1303 19.0078C35.4103 18.5215 35.2431 17.9003 34.7568 17.6203C34.2704 17.3403 33.6492 17.5075 33.3692 17.9939L35.1303 19.0078ZM13.3579 24.0907L12.3419 24.1026L12.3419 24.1026L13.3579 24.0907ZM15.099 24.9974L15.8204 25.713C16.1093 25.4218 16.1947 24.9854 16.037 24.6067C15.8792 24.228 15.5092 23.9814 15.099 23.9814V24.9974ZM31.0196 40.3023C31.3454 40.7592 31.9799 40.8655 32.4368 40.5397C32.8937 40.2139 33 39.5794 32.6742 39.1225L31.0196 40.3023ZM13.5624 26.5464L12.5612 26.7191L12.5612 26.7191L13.5624 26.5464ZM13.9923 24.6683L21.0607 21.6262L20.2574 19.7596L13.1889 22.8017L13.9923 24.6683ZM22.083 20.4428L23.0552 16.7968L21.0917 16.2732L20.1194 19.9192L22.083 20.4428ZM22.9245 16.956C27.5239 14.8608 31.0683 14.9285 33.6816 16.0436C36.3142 17.1668 38.1764 19.427 39.2485 22.0438C40.3243 24.6697 40.5598 27.5517 40.0356 29.7748C39.5078 32.0134 38.3101 33.3162 36.6862 33.4734L36.882 35.4961C39.7337 35.2201 41.3847 32.9082 42.0135 30.2411C42.646 27.5586 42.3461 24.2441 41.129 21.2734C39.9081 18.2937 37.7199 15.5572 34.4791 14.1744C31.2191 12.7835 27.0672 12.8358 22.082 15.1067L22.9245 16.956ZM36.6862 33.4734C36.1234 33.5278 35.5255 33.2601 34.9336 32.4542C34.3358 31.6403 33.8468 30.3925 33.577 28.8633C33.0368 25.8021 33.4324 21.9569 35.1303 19.0078L33.3692 17.9939C31.3884 21.4342 30.9698 25.7823 31.5758 29.2164C31.879 30.9349 32.4533 32.5102 33.2957 33.6572C34.1441 34.8122 35.3635 35.643 36.882 35.4961L36.6862 33.4734ZM14.4036 24.9373C14.3875 24.6648 14.3774 24.3789 14.3739 24.0788L12.3419 24.1026C12.3458 24.4328 12.3568 24.751 12.375 25.0576L14.4036 24.9373ZM13.3893 26.0135H15.099V23.9814H13.3893V26.0135ZM32.6742 39.1225C30.5995 36.2129 28.4472 34.5081 26.3377 33.4521C24.2462 32.405 22.2415 32.0217 20.5667 31.6963C18.8303 31.359 17.5783 31.097 16.6161 30.4155C15.7287 29.787 14.9645 28.6965 14.5637 26.3736L12.5612 26.7191C13.0206 29.3819 13.9797 31.0384 15.4415 32.0738C16.8286 33.0562 18.5517 33.375 20.1792 33.6912C21.8681 34.0193 23.6159 34.362 25.428 35.2692C27.2223 36.1675 29.1251 37.6454 31.0196 40.3023L32.6742 39.1225ZM14.5637 26.3736C14.4894 25.9431 14.435 25.4662 14.4036 24.9373L12.375 25.0576C12.4103 25.6525 12.4725 26.2053 12.5612 26.7191L14.5637 26.3736ZM14.3776 24.2819L12.8411 25.8308L14.2838 27.262L15.8204 25.713L14.3776 24.2819ZM23.0552 16.7968C23.0429 16.843 23.0228 16.8755 23.0042 16.8972C22.9857 16.9188 22.9602 16.9398 22.9245 16.956L22.082 15.1067C21.607 15.3231 21.2312 15.7501 21.0917 16.2732L23.0552 16.7968ZM21.0607 21.6262C21.5648 21.4092 21.9416 20.9731 22.083 20.4428L20.1194 19.9192C20.1385 19.8477 20.1893 19.7888 20.2574 19.7596L21.0607 21.6262ZM13.1889 22.8017C12.6763 23.0223 12.3352 23.5309 12.3419 24.1026L14.3739 24.0788C14.377 24.3412 14.2207 24.57 13.9923 24.6683L13.1889 22.8017Z" fill="#0E111F"/>
<path d="M50.0522 2.59229C69.0126 -1.49312 79.947 31.3406 38.5768 49.3349C37.5938 49.7624 36.4011 49.7499 35.4182 49.3219C-23.3715 23.724 19.9527 -15.3151 34.2496 10.4404" stroke="#0E111F" stroke-width="2.03215" stroke-linecap="round"/>
<path d="M58.2754 25.7464L59.7131 25.9249C59.6047 26.6753 59.4805 27.1257 59.3122 27.7219L58.2351 25.9249C58.1296 25.89 58.1651 25.7327 58.2754 25.7464Z" fill="#0E111F"/>
<path d="M36.3392 12.2872C36.0119 12.7729 36.1403 13.432 36.6261 13.7593C37.1118 14.0867 37.771 13.9582 38.0983 13.4725L36.3392 12.2872ZM46.5518 3.54675L47.556 3.20556C47.4651 2.93786 47.271 2.71755 47.0169 2.59358C46.7628 2.4696 46.4697 2.45222 46.2027 2.54528L46.5518 3.54675ZM46.958 12.8798L45.9024 12.7772C45.8528 13.2869 46.1746 13.7593 46.6671 13.8997L46.958 12.8798ZM55.9909 22.2129L54.9592 22.4587C55.0367 22.784 55.2631 23.0536 55.57 23.1863L55.9909 22.2129ZM59.6416 23.7915L60.0625 22.8181L60.0625 22.8181L59.6416 23.7915ZM59.8951 24.2072L60.953 24.2834L60.953 24.2834L59.8951 24.2072ZM58.2754 25.7464L58.1447 26.7988L58.1447 26.7988L58.2754 25.7464ZM58.8033 29.3187L59.7711 29.7527L59.7711 29.7527L58.8033 29.3187ZM40.1093 39.9404C39.8252 40.4526 40.0102 41.0982 40.5224 41.3823C41.0347 41.6664 41.6802 41.4814 41.9643 40.9692L40.1093 39.9404ZM58.2351 25.9249L59.1448 25.3797C59.0142 25.1617 58.8097 24.9979 58.5685 24.9181L58.2351 25.9249ZM38.0983 13.4725C41.1772 8.90316 42.6434 6.03242 46.9009 4.54822L46.2027 2.54528C41.1263 4.31492 39.2539 7.96159 36.3392 12.2872L38.0983 13.4725ZM45.5476 3.88794C46.5736 6.90776 46.1763 9.96103 45.9024 12.7772L48.0136 12.9825C48.2746 10.2985 48.7585 6.74473 47.556 3.20556L45.5476 3.88794ZM46.6671 13.8997C49.2707 14.6422 50.9922 15.5044 52.2277 16.7562C53.4589 18.0037 54.3127 19.7453 54.9592 22.4587L57.0226 21.967C56.3294 19.0578 55.3474 16.8974 53.7374 15.2662C52.1318 13.6394 50.0067 12.6464 47.2489 11.8599L46.6671 13.8997ZM55.57 23.1863L59.2206 24.765L60.0625 22.8181L56.4119 21.2394L55.57 23.1863ZM58.8373 24.1309C58.7945 24.7244 58.736 25.2705 58.6634 25.7732L60.7628 26.0765C60.8434 25.5184 60.9069 24.9217 60.953 24.2834L58.8373 24.1309ZM59.8438 24.8724L58.4061 24.6939L58.1447 26.7988L59.5824 26.9774L59.8438 24.8724ZM57.8356 28.8848C57.1732 30.3619 56.2589 31.08 55.1426 31.5254C53.9268 32.0104 52.5354 32.1606 50.7795 32.4665C49.0886 32.761 47.1947 33.1898 45.3296 34.2854C43.45 35.3896 41.669 37.1283 40.1093 39.9404L41.9643 40.9692C43.3617 38.4496 44.888 37.0049 46.4039 36.1144C47.9344 35.2153 49.5242 34.8382 51.1436 34.5561C52.698 34.2854 54.4432 34.0881 55.9286 33.4955C57.5136 32.8632 58.865 31.7733 59.7711 29.7527L57.8356 28.8848ZM58.6634 25.7732C58.5651 26.4536 58.4561 26.8505 58.2915 27.4338L60.3328 28.01C60.5048 27.4008 60.6442 26.8971 60.7628 26.0765L58.6634 25.7732ZM58.2915 27.4338C58.1332 27.9946 57.9789 28.5652 57.8356 28.8848L59.7711 29.7527C59.9963 29.2505 60.203 28.4699 60.3328 28.01L58.2915 27.4338ZM57.3254 26.4701L58.4025 28.2671L60.2219 27.1767L59.1448 25.3797L57.3254 26.4701ZM58.4061 24.6939C57.0238 24.5222 56.5795 26.4939 57.9018 26.9317L58.5685 24.9181C59.6798 25.286 59.3064 26.9431 58.1447 26.7988L58.4061 24.6939ZM59.2206 24.765C58.9765 24.6594 58.8173 24.4084 58.8373 24.1309L60.953 24.2834C60.9987 23.6493 60.6348 23.0656 60.0625 22.8181L59.2206 24.765Z" fill="#0E111F"/>
<path d="M81.6919 16.8992C82.6131 16.8992 83.4723 17.165 84.2695 17.6964C85.0844 18.2279 85.7398 18.9453 86.2358 19.8488C86.7319 20.7522 86.9799 21.762 86.9799 22.878C86.9799 23.9764 86.7319 24.9773 86.2358 25.8807C85.7398 26.7842 85.0844 27.5105 84.2695 28.0597C83.4723 28.5911 82.6131 28.8569 81.6919 28.8569H76.8026L77.0683 28.3786V33.8791C77.0683 34.3397 76.9266 34.7294 76.6432 35.0483C76.3597 35.3494 75.9877 35.5 75.5271 35.5C75.0842 35.5 74.7211 35.3494 74.4376 35.0483C74.1542 34.7294 74.0125 34.3397 74.0125 33.8791V18.5202C74.0125 18.0596 74.163 17.6787 74.4642 17.3775C74.7831 17.0587 75.1728 16.8992 75.6334 16.8992H81.6919ZM81.6919 25.8276C82.0285 25.8276 82.3562 25.6859 82.6751 25.4024C82.994 25.119 83.2597 24.7558 83.4723 24.313C83.6849 23.8524 83.7912 23.3741 83.7912 22.878C83.7912 22.3643 83.6849 21.886 83.4723 21.4431C83.2597 21.0003 82.994 20.646 82.6751 20.3802C82.3562 20.0968 82.0285 19.9551 81.6919 19.9551H76.7494L77.0683 19.4768V26.2528L76.776 25.8276H81.6919ZM91.6444 16.8992H100.546C101.007 16.8992 101.388 17.0498 101.689 17.351C102.008 17.6344 102.167 18.0064 102.167 18.467C102.167 18.9099 102.008 19.273 101.689 19.5565C101.388 19.8222 101.007 19.9551 100.546 19.9551H93.1059L93.345 19.5033V24.685L93.1324 24.4724H99.3504C99.811 24.4724 100.192 24.623 100.493 24.9241C100.812 25.2076 100.971 25.5796 100.971 26.0402C100.971 26.4831 100.812 26.8462 100.493 27.1297C100.192 27.3954 99.811 27.5282 99.3504 27.5282H93.2122L93.345 27.3157V32.6833L93.1324 32.4442H100.546C101.007 32.4442 101.388 32.6036 101.689 32.9225C102.008 33.2236 102.167 33.5779 102.167 33.9854C102.167 34.4282 102.008 34.7914 101.689 35.0748C101.388 35.3583 101.007 35.5 100.546 35.5H91.6444C91.1838 35.5 90.7941 35.3494 90.4752 35.0483C90.174 34.7294 90.0235 34.3397 90.0235 33.8791V18.5202C90.0235 18.0596 90.174 17.6787 90.4752 17.3775C90.7941 17.0587 91.1838 16.8992 91.6444 16.8992ZM111.528 35.5C111.032 35.5 110.624 35.3494 110.305 35.0483C109.986 34.7294 109.827 34.3397 109.827 33.8791V18.467H113.281V33.8791C113.281 34.3397 113.113 34.7294 112.777 35.0483C112.458 35.3494 112.041 35.5 111.528 35.5ZM105.655 19.9551C105.195 19.9551 104.805 19.8133 104.486 19.5299C104.185 19.2465 104.034 18.8745 104.034 18.4139C104.034 17.9533 104.185 17.5901 104.486 17.3244C104.805 17.0409 105.195 16.8992 105.655 16.8992H117.453C117.914 16.8992 118.295 17.0409 118.596 17.3244C118.915 17.6078 119.074 17.9798 119.074 18.4404C119.074 18.901 118.915 19.273 118.596 19.5565C118.295 19.8222 117.914 19.9551 117.453 19.9551H105.655ZM136.141 21.0711L130.401 34.57C130.277 34.9065 130.082 35.1723 129.816 35.3671C129.568 35.5443 129.294 35.6329 128.992 35.6329C128.514 35.6329 128.16 35.5 127.93 35.2343C127.699 34.9685 127.584 34.6408 127.584 34.2511C127.584 34.0917 127.611 33.9234 127.664 33.7462L134.28 17.8558C134.422 17.5015 134.635 17.227 134.918 17.0321C135.219 16.8372 135.538 16.7575 135.875 16.7929C136.194 16.7929 136.486 16.8904 136.752 17.0852C137.035 17.2624 137.239 17.5193 137.363 17.8558L143.9 33.4273C143.988 33.6576 144.033 33.8702 144.033 34.0651C144.033 34.5434 143.873 34.9243 143.554 35.2077C143.253 35.4911 142.917 35.6329 142.544 35.6329C142.226 35.6329 141.933 35.5354 141.668 35.3406C141.42 35.1457 141.225 34.88 141.083 34.5434L135.37 21.2305L136.141 21.0711ZM131.225 31.3281L132.686 28.2723H139.861L140.366 31.3281H131.225ZM147.957 16.8727C148.205 16.8727 148.461 16.9435 148.727 17.0852C149.011 17.2092 149.223 17.3775 149.365 17.5901L155.822 27.5282L154.493 27.4751L161.11 17.5901C161.447 17.1118 161.881 16.8727 162.412 16.8727C162.837 16.8727 163.218 17.0232 163.555 17.3244C163.891 17.6255 164.06 18.0153 164.06 18.4936V33.8791C164.06 34.3397 163.909 34.7294 163.608 35.0483C163.307 35.3494 162.908 35.5 162.412 35.5C161.916 35.5 161.509 35.3494 161.19 35.0483C160.889 34.7294 160.738 34.3397 160.738 33.8791V21.3634L161.774 21.6026L156.353 29.8666C156.194 30.0615 155.99 30.2298 155.742 30.3715C155.512 30.5132 155.273 30.5752 155.025 30.5575C154.795 30.5752 154.555 30.5132 154.307 30.3715C154.077 30.2298 153.882 30.0615 153.723 29.8666L148.647 21.8417L149.338 20.4334V33.8791C149.338 34.3397 149.197 34.7294 148.913 35.0483C148.63 35.3494 148.258 35.5 147.797 35.5C147.354 35.5 146.991 35.3494 146.708 35.0483C146.424 34.7294 146.282 34.3397 146.282 33.8791V18.4936C146.282 18.0507 146.442 17.6698 146.761 17.351C147.097 17.0321 147.496 16.8727 147.957 16.8727ZM171.376 33.8791C171.376 34.3397 171.208 34.7294 170.871 35.0483C170.534 35.3494 170.145 35.5 169.702 35.5C169.206 35.5 168.807 35.3494 168.506 35.0483C168.205 34.7294 168.054 34.3397 168.054 33.8791V18.5202C168.054 18.0596 168.214 17.6787 168.533 17.3775C168.852 17.0587 169.259 16.8992 169.755 16.8992C170.18 16.8992 170.552 17.0587 170.871 17.3775C171.208 17.6787 171.376 18.0596 171.376 18.5202V33.8791ZM184.141 35.7657C182.795 35.7657 181.537 35.5177 180.368 35.0217C179.199 34.5257 178.171 33.8436 177.285 32.9756C176.4 32.0899 175.7 31.0712 175.186 29.9198C174.69 28.7683 174.442 27.5282 174.442 26.1996C174.442 24.871 174.69 23.6309 175.186 22.4795C175.7 21.328 176.4 20.3182 177.285 19.4502C178.171 18.5644 179.199 17.8736 180.368 17.3775C181.537 16.8815 182.795 16.6335 184.141 16.6335C184.974 16.6335 185.78 16.7221 186.559 16.8992C187.339 17.0764 188.056 17.3421 188.712 17.6964C188.977 17.8381 189.172 18.033 189.296 18.281C189.438 18.5113 189.509 18.7504 189.509 18.9985C189.509 19.4236 189.367 19.8045 189.084 20.1411C188.8 20.4777 188.437 20.646 187.994 20.646C187.852 20.646 187.702 20.6282 187.542 20.5928C187.401 20.5574 187.259 20.5042 187.117 20.4334C186.674 20.2385 186.205 20.0879 185.709 19.9816C185.213 19.8753 184.69 19.8222 184.141 19.8222C182.99 19.8222 181.936 20.1145 180.979 20.6991C180.04 21.266 179.287 22.0366 178.72 23.0109C178.171 23.9675 177.897 25.0304 177.897 26.1996C177.897 27.3511 178.171 28.414 178.72 29.3883C179.287 30.3626 180.04 31.1421 180.979 31.7267C181.936 32.2936 182.99 32.577 184.141 32.577C184.673 32.577 185.257 32.5239 185.895 32.4176C186.533 32.3113 187.055 32.1696 187.463 31.9924L187.224 32.7896V28.2457L187.675 28.6443H184.726C184.265 28.6443 183.875 28.4937 183.556 28.1926C183.255 27.8914 183.105 27.5105 183.105 27.0499C183.105 26.5893 183.255 26.2085 183.556 25.9073C183.875 25.6062 184.265 25.4556 184.726 25.4556H189.084C189.544 25.4556 189.925 25.615 190.226 25.9339C190.527 26.235 190.678 26.6159 190.678 27.0765V32.7099C190.678 33.0642 190.589 33.3565 190.412 33.5868C190.253 33.8171 190.067 34.0031 189.854 34.1448C189.039 34.6408 188.145 35.0394 187.17 35.3406C186.214 35.624 185.204 35.7657 184.141 35.7657ZM210.987 26.1996C210.987 27.5282 210.766 28.7683 210.323 29.9198C209.88 31.0712 209.251 32.0899 208.436 32.9756C207.639 33.8436 206.682 34.5257 205.566 35.0217C204.468 35.5177 203.263 35.7657 201.952 35.7657C200.641 35.7657 199.437 35.5177 198.338 35.0217C197.24 34.5257 196.284 33.8436 195.469 32.9756C194.671 32.0899 194.051 31.0712 193.609 29.9198C193.166 28.7683 192.944 27.5282 192.944 26.1996C192.944 24.871 193.166 23.6309 193.609 22.4795C194.051 21.328 194.671 20.3182 195.469 19.4502C196.284 18.5644 197.24 17.8736 198.338 17.3775C199.437 16.8815 200.641 16.6335 201.952 16.6335C203.263 16.6335 204.468 16.8815 205.566 17.3775C206.682 17.8736 207.639 18.5644 208.436 19.4502C209.251 20.3182 209.88 21.328 210.323 22.4795C210.766 23.6309 210.987 24.871 210.987 26.1996ZM207.533 26.1996C207.533 25.0127 207.293 23.9409 206.815 22.9843C206.337 22.01 205.681 21.2394 204.849 20.6725C204.016 20.1056 203.051 19.8222 201.952 19.8222C200.854 19.8222 199.889 20.1056 199.056 20.6725C198.223 21.2394 197.568 22.0012 197.09 22.9578C196.629 23.9144 196.399 24.995 196.399 26.1996C196.399 27.3865 196.629 28.4671 197.09 29.4415C197.568 30.3981 198.223 31.1598 199.056 31.7267C199.889 32.2936 200.854 32.577 201.952 32.577C203.051 32.577 204.016 32.2936 204.849 31.7267C205.681 31.1598 206.337 30.3981 206.815 29.4415C207.293 28.4671 207.533 27.3865 207.533 26.1996Z" fill="#0E111F"/>
</svg>
